# AST/ASF file generated using VICON BodyLanguage
# -----------------------------------------------
:version 1.10
:name VICON
:units
  mass 1.0
  length 0.45
  angle deg
:documentation
   .ast/.asf automatically generated from VICON data using
   VICON BodyBuilder and BodyLanguage model FoxedUp or BRILLIANT.MOD
:root
   order TX TY TZ RX RY RZ
   axis XYZ
   position 0 0 0  
   orientation 0 0 0 
:bonedata
  begin
     id 1 
     name lhipjoint
     direction 0.690799 -0.707083 0.151096 
     length 2.54797 
     axis 0 0 0  XYZ
  end
  begin
     id 2 
     name lfemur
     direction 0.34202 -0.939693 0  
     length 7.21646  
     axis 0 0 20  XYZ
    dof rx ry rz
    limits (-160.0 20.0)
           (-70.0 70.0)
           (-60.0 70.0)
  end
  begin
     id 3 
     name ltibia
     direction 0.34202 -0.939693 0   
     length 8.16759   
     axis 0 0 20   XYZ
    dof rx
    limits (-10.0 170.0)
  end
  begin
     id 4 
     name lfoot
     direction 0.0487203 -0.133858 0.989802   
     length 1.93375   
     axis -90 7.62852e-016 20   XYZ
    dof rx rz
    limits (-45.0 90.0)
           (-70.0 20.0)
  end
  begin
     id 5 
     name ltoes
     direction 1.53453e-011 -4.21783e-011 1   
     length 0.979747   
     axis -90 7.62852e-016 20   XYZ
    dof rx
    limits (-90.0 20.0)
  end
  begin
     id 6 
     name rhipjoint
     direction -0.694693 -0.703425 0.150315   
     length 2.56122  
     axis 0 0 0  XYZ 
  end
  begin
     id 7 
     name rfemur
     direction -0.34202 -0.939693 0   
     length 7.36786   
     axis 0 0 -20   XYZ
    dof rx ry rz
    limits (-160.0 20.0)
           (-70.0 70.0)
           (-70.0 60.0)
  end
  begin
     id 8 
     name rtibia
     direction -0.34202 -0.939693 0   
     length 8.07288   
     axis 0 0 -20   XYZ
    dof rx
    limits (-10.0 170.0)
 end
 begin
     id 9 
     name rfoot
     direction -0.0428397 -0.117701 0.992125   
     length 1.88295  
     axis -90 -7.62852e-016 -20   XYZ
    dof rx rz
    limits (-45.0 90.0)
           (-20.0 70.0)
  end
  begin
     id 10 
     name rtoes
     direction -1.53456e-011 -4.2187e-011 1   
     length 0.955578   
     axis -90 -7.62852e-016 -20   XYZ
    dof rx
    limits (-90.0 20.0)
  end
  begin
     id 11 
     name lowerback
     direction 0.0288145 0.999398 -0.0193241   
     length 1.92149   
     axis 0 0 0   XYZ
    dof rx ry rz
    limits (-20.0 45.0)
           (-30.0 30.0)
           (-30.0 30.0)
  end
  begin
     id 12 
     name upperback
     direction 0.0233784 0.998099 0.0570278   
     length 1.90435   
     axis 0 0 0   XYZ
    dof rx ry rz
    limits (-20.0 45.0)
           (-30.0 30.0)
           (-30.0 30.0)
  end
  begin
     id 13 
     name thorax
     direction 0.0096694 0.997833 0.0650817   
     length 1.9111   
     axis 0 0 0   XYZ
    dof rx ry rz
    limits (-20.0 45.0)
           (-30.0 30.0)
           (-30.0 30.0)
  end
  begin
     id 14 
     name lowerneck
     direction 0.00516803 0.999916 0.0118722   
     length 1.74664   
     axis 0 0 0   XYZ
    dof rx ry rz
    limits (-20.0 45.0)
           (-30.0 30.0)
           (-30.0 30.0)
  end
  begin
     id 15 
     name upperneck
     direction -0.0510851 0.996117 -0.071696   
     length 1.68498   
     axis 0 0 0   XYZ
    dof rx ry rz
    limits (-20.0 45.0)
           (-30.0 30.0)
           (-30.0 30.0)
  end
  begin
     id 16
     name head
     direction -0.019188 0.999436 -0.0275702  
     length 1.83483  
     axis 0 0 0   XYZ
    dof rx ry rz
    limits (-20.0 45.0)
           (-30.0 30.0)
           (-30.0 30.0)
  end
  begin
     id 17 
     name lclavicle
     direction 0.967006 0.248456 -0.0562957  
     length 3.39395  
     axis 0 0 0   XYZ
    dof ry rz
    limits (-20.0 10.0)
           (0.0 20.0)
  end
  begin
     id 18 
     name lhumerus
     direction 1 -4.48962e-011 -5.62711e-019   
     length 5.24318   
     axis 180 -30 -90   XYZ
    dof rx ry rz
    limits (-60.0 90.0)
           (-90.0 90.0)
           (-90.0 90.0)
  end
  begin
     id 19
     name lradius
     direction 1 -4.48966e-011 7.90625e-027   
     length 2.98999   
     axis 180 -30 -90   XYZ
    dof rx
    limits (-10.0 170.0)
  end
  begin
     id 20
     name lwrist
     direction 1 -4.48959e-011 1.61068e-026   
     length 1.49499   
     axis -9.31229e-015 90 90   XYZ
    dof ry
    limits (-180.0 0.0)
 end
  begin
     id 21 
     name lhand
     direction 1 -4.49017e-011 3.22136e-026   
     length 0.726745   
     axis -2.0555e-014 90 90   XYZ
    dof rx rz
    limits (-90.0 90.0)
           (-45.0 45.0)
  end
  begin
     id 22 
     name lfingers
     direction 1 -4.4898e-011 6.44272e-026   
     length 0.58592   
     axis -4.11101e-014 90 90   XYZ
    dof rx
    limits (0.0 90.0)
  end
  begin
     id 23
     name lthumb
     direction 0.707107 -6.34922e-011 0.707107   
     length 0.841268   
     axis -90 45 2.85299e-015   XYZ
    dof rx rz
    limits (-45.0 45.0)
           (-45.0 45.0)
  end
  begin
     id 24 
     name rclavicle
     direction -0.972232 0.230238 0.0419005   
     length 3.40416  
     axis 0 0 0   XYZ 
    dof ry rz
    limits (-10.0 20.0)
           (-20.0 0.0)
  end
  begin
     id 25 
     name rhumerus
     direction -1 -4.48976e-011 2.48487e-027  
     length 5.37045   
     axis 180 30 90   XYZ
    dof rx ry rz
    limits (-90.0 60.0)
           (-90.0 90.0)
           (-90.0 90.0)
  end
  begin
     id 26 
     name rradius
     direction -1 -4.48942e-011 7.87951e-027   
     length 2.92792   
     axis 180 30 90   XYZ
    dof rx
    limits (-10.0 170.0)
  end
  begin
     id 27 
     name rwrist
     direction -1 -4.48969e-011 1.61068e-026   
     length 1.46396   
     axis -9.31229e-015 -90 -90   XYZ
    dof ry
    limits (-180.0 0.0)
  end
  begin
     id 28
     name rhand
     direction -1 -4.49043e-011 3.22136e-026   
     length 0.784497   
     axis -2.0555e-014 -90 -90   XYZ
    dof rx rz
    limits (-90.0 90.0)
           (-45.0 45.0)
  end
  begin
     id 29
     name rfingers
     direction -1 -4.48823e-011 6.44272e-026   
     length 0.632482   
     axis -4.11101e-014 -90 -90   XYZ
    dof rx
    limits (0.0 90.0)
  end
  begin
     id 30
     name rthumb
     direction -0.707107 -6.34923e-011 0.707107   
     length 0.908121   
     axis -90 -45 -2.85299e-015   XYZ
    dof rx rz
    limits (-45.0 45.0)
           (-45.0 45.0)
  end
:hierarchy
  begin
    root lhipjoint rhipjoint lowerback
    lhipjoint lfemur
    lfemur ltibia
    ltibia lfoot
    lfoot ltoes
    rhipjoint rfemur
    rfemur rtibia
    rtibia rfoot
    rfoot rtoes
    lowerback upperback
    upperback thorax
    thorax lowerneck lclavicle rclavicle
    lowerneck upperneck
    upperneck head
    lclavicle lhumerus
    lhumerus lradius
    lradius lwrist
    lwrist lhand lthumb
    lhand lfingers
    rclavicle rhumerus
    rhumerus rradius
    rradius rwrist
    rwrist rhand rthumb
    rhand rfingers
  end

#!OML:ASF E:\Style6\Style6.ASF
:FULLY-SPECIFIED
:DEGREES
1
root 0.559006 18.2092 0.568275 36.21 0.833987 -1.69069
lowerback 11.6527 -1.06584 4.42291
upperback -7.89017 -0.218164 3.01534
thorax -15.4723 -0.35174 0.966788
lowerneck -9.61448 0.376022 2.7647
upperneck -11.812 -0.293638 -7.60237
head -2.16428 -0.158164 -2.97119
rclavicle -2.04748e-014 4.92986e-014
rhumerus -10.3874 9.63081 -89.3781
rradius 26.0278
rwrist 42.5483
rhand -8.62818 7.02235
rfingers 7.12502
rthumb 17.3043 -22.2273
lclavicle -2.04748e-014 4.92986e-014
lhumerus -6.8999 -24.835 92.3004
lradius 23.5426
lwrist -18.0075
lhand -10.8966 20.5006
lfingers 7.12502
lthumb 15.1201 49.9283
rfemur -37.1146 19.4735 4.61678
rtibia -7.15625e-015
rfoot -27.7649 -26.079
rtoes 52.3095
lfemur -55.6051 -45.2712 23.9645
ltibia 12.3649
lfoot -48.3581 46.1706
ltoes 43.6106
2
root 0.560958 18.209 0.568927 36.2334 0.81444 -1.63445
lowerback 11.6284 -1.05647 4.38737
upperback -7.8902 -0.216739 2.99341
thorax -15.4559 -0.348854 0.960864
lowerneck -9.53489 0.355453 2.78605
upperneck -11.8876 -0.329695 -7.64325
head -2.20593 -0.173824 -2.99139
rclavicle 7.15625e-015 7.95139e-016
rhumerus -10.4303 9.63299 -89.3684
rradius 26.1149
rwrist 42.4961
rhand -8.60167 7.07304
rfingers 7.12502
rthumb 17.3298 -22.1743
lclavicle 7.15625e-015 7.95139e-016
lhumerus -6.90091 -24.8929 92.3044
lradius 23.551
lwrist -17.9159
lhand -10.9734 20.462
lfingers 7.12502
lthumb 15.0461 49.8952
rfemur -37.1313 19.4433 4.5452
rtibia -1.19271e-015
rfoot -27.8345 -26.0299
rtoes 52.3911
lfemur -55.5907 -45.2532 23.8923
ltibia 12.2981
lfoot -48.092 46.3163
ltoes 43.3601
3
root 0.562304 18.2092 0.569541 36.2672 0.835031 -1.64419
lowerback 11.6205 -1.05724 4.42325
upperback -7.91659 -0.209941 2.996
thorax -15.4836 -0.349704 0.94297
lowerneck -9.47333 0.354813 2.79496
upperneck -11.9168 -0.334025 -7.66732
head -2.2268 -0.174312 -3.00218
rclavicle 8.15017e-015 -1.86858e-014
rhumerus -10.5027 9.61387 -89.3852
rradius 26.1746
rwrist 42.5005
rhand -8.56131 7.05226
rfingers 7.12502
rthumb 17.3687 -22.1917
lclavicle 8.15017e-015 -1.86858e-014
lhumerus -6.98241 -24.8903 92.3358
lradius 23.5678
lwrist -17.8697
lhand -11.1233 20.4274
lfingers 7.12502
lthumb 14.9017 49.8714
rfemur -37.1559 19.427 4.55852
rtibia 5.36719e-014
rfoot -27.8342 -26.0307
rtoes 52.4132
lfemur -55.5357 -45.1603 23.8241
ltibia 12.2532
lfoot -47.9875 46.2695
ltoes 43.2743
4
root 0.563789 18.2093 0.570844 36.2623 0.832053 -1.61432
lowerback 11.6568 -1.06048 4.43286
upperback -7.93042 -0.21218 2.97499
thorax -15.524 -0.353626 0.915967
lowerneck -9.43765 0.358348 2.81222
upperneck -11.9384 -0.332386 -7.68154
head -2.2403 -0.172925 -3.01082
rclavicle 1.41137e-014 -2.0276e-014
rhumerus -10.5661 9.61432 -89.4184
rradius 26.2079
rwrist 42.4665
rhand -8.49599 7.00402
rfingers 7.12502
rthumb 17.4315 -22.2344
lclavicle 1.41137e-014 -2.0276e-014
lhumerus -7.0467 -24.8989 92.3539
lradius 23.5659
lwrist -17.8183
lhand -11.2043 20.3896
lfingers 7.12502
lthumb 14.8236 49.8394
rfemur -37.142 19.4119 4.5339
rtibia -4.13472e-014
rfoot -27.8011 -26.0998
rtoes 52.3454
lfemur -55.5279 -45.193 23.8047
ltibia 12.2085
lfoot -48.1175 46.1999
ltoes 43.4246
5
root 0.564794 18.2095 0.572317 36.2572 0.77617 -1.57567
lowerback 11.6761 -1.05307 4.37204
upperback -7.93076 -0.214123 2.96034
thorax -15.5356 -0.349191 0.934445
lowerneck -9.43678 0.368204 2.81493
upperneck -11.9348 -0.320212 -7.69712
head -2.23862 -0.16674 -3.01652
rclavicle -1.0138e-014 1.35174e-014
rhumerus -10.6015 9.65658 -89.4357
rradius 26.2615
rwrist 42.4242
rhand -8.44214 6.94132
rfingers 7.12502
rthumb 17.4834 -22.2925
lclavicle -1.0138e-014 1.35174e-014
lhumerus -7.06438 -24.918 92.3542
lradius 23.5587
lwrist -17.7338
lhand -11.1523 20.4352
lfingers 7.12502
lthumb 14.8738 49.8813
rfemur -37.1421 19.4221 4.45458
rtibia 1.19271e-014
rfoot -28.0166 -25.8936
rtoes 52.6035
lfemur -55.4921 -45.2109 23.7395
ltibia 12.1686
lfoot -48.104 46.2101
ltoes 43.4436
6
root 0.565958 18.2094 0.573235 36.2888 0.775041 -1.56892
lowerback 11.6686 -1.05382 4.36916
upperback -7.95332 -0.214289 2.9663
thorax -15.5584 -0.348847 0.943637
lowerneck -9.43021 0.364318 2.75653
upperneck -11.9032 -0.31472 -7.63763
head -2.22794 -0.162746 -2.98435
rclavicle -5.76476e-015 -3.1408e-014
rhumerus -10.6428 9.6616 -89.4449
rradius 26.2546
rwrist 42.4001
rhand -8.44383 7.01916
rfingers 7.12502
rthumb 17.4817 -22.2148
lclavicle -5.76476e-015 -3.1408e-014
lhumerus -7.09353 -24.9168 92.3629
lradius 23.5509
lwrist -17.6528
lhand -11.047 20.5123
lfingers 7.12502
lthumb 14.9752 49.9508
rfemur -37.168 19.4053 4.43183
rtibia 2.82274e-014
rfoot -28.1014 -25.812
rtoes 52.6793
lfemur -55.51 -45.2182 23.7935
ltibia 12.0976
lfoot -48.1077 46.1926
ltoes 43.4282
7
root 0.566606 18.2099 0.573742 36.3005 0.77462 -1.5443
lowerback 11.7021 -1.05106 4.34966
upperback -7.97978 -0.209663 2.97202
thorax -15.6119 -0.344648 0.961926
lowerneck -9.37174 0.360466 2.71119
upperneck -11.8897 -0.313128 -7.61175
head -2.23283 -0.159403 -2.96688
rclavicle 8.54774e-015 -6.36111e-015
rhumerus -10.7138 9.78323 -89.4361
rradius 26.2777
rwrist 42.2652
rhand -8.44255 6.97797
rfingers 7.12502
rthumb 17.483 -22.2559
lclavicle 8.54774e-015 -6.36111e-015
lhumerus -7.14062 -25.0056 92.3933
lradius 23.5799
lwrist -17.5388
lhand -10.8535 20.6934
lfingers 7.12502
lthumb 15.1616 50.1179
rfemur -37.1754 19.388 4.40861
rtibia -2.66371e-014
rfoot -27.9073 -26.0019
rtoes 52.4402
lfemur -55.524 -45.2203 23.7942
ltibia 12.0501
lfoot -48.2263 46.1942
ltoes 43.5707
8
root 0.567858 18.2093 0.573566 36.3341 0.766641 -1.49662
lowerback 11.6938 -1.04919 4.30762
upperback -7.98975 -0.215605 2.9686
thorax -15.618 -0.343265 0.983298
lowerneck -9.33936 0.371333 2.72235
upperneck -11.9109 -0.301912 -7.63608
head -2.24508 -0.152886 -2.97773
rclavicle -3.37934e-015 -7.95139e-015
rhumerus -10.7434 9.82537 -89.4368
rradius 26.3088
rwrist 42.2297
rhand -8.49229 6.89774
rfingers 7.12502
rthumb 17.4351 -22.3404
lclavicle -3.37934e-015 -7.95139e-015
lhumerus -7.15824 -25.1149 92.3851
lradius 23.6335
lwrist -17.4592
lhand -10.6895 20.807
lfingers 7.12502
lthumb 15.3196 50.2196
rfemur -37.2042 19.3543 4.35184
rtibia 8.38871e-014
rfoot -27.8336 -26.0877
rtoes 52.3182
lfemur -55.6777 -45.2816 23.9165
ltibia 12.0384
lfoot -48.4222 46.2462
ltoes 43.8008
9
root 0.569549 18.2093 0.573885 36.3613 0.75386 -1.47867
lowerback 11.679 -1.0448 4.29685
upperback -7.98164 -0.214943 2.95498
thorax -15.5983 -0.342678 0.972977
lowerneck -9.33084 0.396584 2.78403
upperneck -11.9564 -0.276759 -7.66305
head -2.26094 -0.141586 -2.99908
rclavicle -3.37934e-015 2.06736e-014
rhumerus -10.7513 9.88371 -89.471
rradius 26.3633
rwrist 42.1176
rhand -8.54683 6.79991
rfingers 7.12502
rthumb 17.3826 -22.4428
lclavicle -3.37934e-015 2.06736e-014
lhumerus -7.15469 -25.2045 92.3447
lradius 23.6722
lwrist -17.4566
lhand -10.6814 20.7881
lfingers 7.12502
lthumb 15.3273 50.2
rfemur -37.2396 19.34 4.31276
rtibia -2.46493e-014
rfoot -27.9174 -26.018
rtoes 52.4439
lfemur -55.6681 -45.2432 23.8634
ltibia 12.0238
lfoot -48.1525 46.4111
ltoes 43.585
10
root 0.57082 18.2092 0.574528 36.3869 0.782704 -1.51038
lowerback 11.651 -1.04103 4.35542
upperback -7.98595 -0.200672 2.95356
thorax -15.5864 -0.342441 0.934456
lowerneck -9.30885 0.394619 2.79855
upperneck -11.9471 -0.278047 -7.64413
head -2.26157 -0.142751 -2.99518
rclavicle -5.36719e-015 -1.74931e-014
rhumerus -10.7682 9.88041 -89.4982
rradius 26.3699
rwrist 42.0182
rhand -8.61388 6.76221
rfingers 7.12502
rthumb 17.3181 -22.4862
lclavicle -5.36719e-015 -1.74931e-014
lhumerus -7.1896 -25.2871 92.331
lradius 23.6808
lwrist -17.4727
lhand -10.7461 20.7634
lfingers 7.12502
lthumb 15.2651 50.1801
rfemur -37.2599 19.3251 4.34285
rtibia 3.29983e-014
rfoot -28.1012 -25.822
rtoes 52.6728
lfemur -55.6289 -45.1927 23.8617
ltibia 11.9778
lfoot -47.8532 46.5538
ltoes 43.3162
11
root 0.571671 18.2092 0.575085 36.3751 0.782471 -1.5136
lowerback 11.6575 -1.03538 4.37448
upperback -7.96402 -0.189956 2.95328
thorax -15.5638 -0.339208 0.919986
lowerneck -9.32261 0.38871 2.73236
upperneck -11.9537 -0.277171 -7.58398
head -2.26057 -0.140583 -2.96196
rclavicle 5.1684e-015 1.63003e-014
rhumerus -10.741 9.90407 -89.4875
rradius 26.3474
rwrist 42.0221
rhand -8.68999 6.74481
rfingers 7.12502
rthumb 17.2448 -22.51
lclavicle 5.1684e-015 1.63003e-014
lhumerus -7.17372 -25.362 92.3169
lradius 23.6679
lwrist -17.3725
lhand -10.8646 20.7
lfingers 7.12502
lthumb 15.151 50.1253
rfemur -37.2418 19.329 4.34768
rtibia 1.59028e-015
rfoot -28.0909 -25.8361
rtoes 52.6479
lfemur -55.6141 -45.2051 23.8601
ltibia 11.9647
lfoot -47.8167 46.6115
ltoes 43.1914
12
root 0.572157 18.2071 0.574598 36.385 0.710031 -1.40882
lowerback 11.668 -1.01954 4.26034
upperback -7.97286 -0.192779 2.92276
thorax -15.5791 -0.330723 0.950703
lowerneck -9.25647 0.381407 2.66463
upperneck -11.9894 -0.280075 -7.53898
head -2.28344 -0.137972 -2.93463
rclavicle 5.76476e-015 -1.19271e-014
rhumerus -10.7483 9.79484 -89.4699
rradius 26.3192
rwrist 42.1546
rhand -8.72398 6.76281
rfingers 7.12502
rthumb 17.2121 -22.4949
lclavicle 5.76476e-015 -1.19271e-014
lhumerus -7.20105 -25.3765 92.3424
lradius 23.6484
lwrist -17.3452
lhand -10.8719 20.6928
lfingers 7.12502
lthumb 15.1439 50.1187
rfemur -37.2535 19.3143 4.20762
rtibia 1.11319e-014
rfoot -28.1123 -25.811
rtoes 52.6793
lfemur -55.6329 -45.2065 23.7347
ltibia 11.9616
lfoot -47.9457 46.4783
ltoes 43.4201
13
root 0.572862 18.2067 0.574411 36.3946 0.675289 -1.38413
lowerback 11.6651 -1.01447 4.22187
upperback -7.97087 -0.193652 2.92092
thorax -15.574 -0.32712 0.970214
lowerneck -9.19488 0.40329 2.71131
upperneck -12.0409 -0.262156 -7.61668
head -2.31118 -0.127755 -2.97121
rclavicle -1.78906e-015 9.54166e-015
rhumerus -10.7266 9.72415 -89.4682
rradius 26.2748
rwrist 42.2377
rhand -8.6516 6.75701
rfingers 7.12502
rthumb 17.2818 -22.4946
lclavicle -1.78906e-015 9.54166e-015
lhumerus -7.20042 -25.2958 92.343
lradius 23.6107
lwrist -17.432
lhand -10.8732 20.6601
lfingers 7.12502
lthumb 15.1426 50.0861
rfemur -37.2758 19.3187 4.15566
rtibia -4.77083e-015
rfoot -28.1189 -25.7781
rtoes 52.7269
lfemur -55.589 -45.1703 23.6506
ltibia 11.9277
lfoot -47.8684 46.4397
ltoes 43.4223
14
root 0.573685 18.2062 0.574914 36.4328 0.683324 -1.41236
lowerback 11.6011 -1.01567 4.2258
upperback -7.95496 -0.195784 2.94976
thorax -15.5137 -0.326041 0.998815
lowerneck -9.10003 0.443516 2.81509
upperneck -12.1671 -0.230634 -7.73361
head -2.36982 -0.110781 -3.03353
rclavicle 5.96354e-016 1.27222e-014
rhumerus -10.6723 9.6429 -89.464
rradius 26.266
rwrist 42.3147
rhand -8.52562 6.75481
rfingers 7.12502
rthumb 17.403 -22.4861
lclavicle 5.96354e-016 1.27222e-014
lhumerus -7.1579 -25.1546 92.318
lradius 23.5728
lwrist -17.5407
lhand -10.8711 20.5139
lfingers 7.12502
lthumb 15.1446 49.9397
rfemur -37.3199 19.3182 4.16924
rtibia -1.07344e-014
rfoot -28.1277 -25.7676
rtoes 52.7179
lfemur -55.5215 -45.0815 23.5981
ltibia 11.881
lfoot -47.6021 46.5592
ltoes 43.3074
15
root 0.575098 18.2064 0.575509 36.4388 0.700082 -1.39499
lowerback 11.5775 -1.02613 4.22193
upperback -7.92632 -0.21269 2.95835
thorax -15.4638 -0.332394 1.01304
lowerneck -9.08608 0.484488 2.85792
upperneck -12.2185 -0.183523 -7.76618
head -2.38722 -0.0874303 -3.05332
rclavicle 9.93923e-015 -4.09496e-014
rhumerus -10.6194 9.60015 -89.4632
rradius 26.2695
rwrist 42.3652
rhand -8.47459 6.75445
rfingers 7.12502
rthumb 17.4521 -22.4821
lclavicle 9.93923e-015 -4.09496e-014
lhumerus -7.10113 -25.0712 92.2842
lradius 23.5595
lwrist -17.5567
lhand -10.8736 20.367
lfingers 7.12502
lthumb 15.1423 49.793
rfemur -37.3131 19.2929 4.16472
rtibia 1.59028e-014
rfoot -28.0857 -25.823
rtoes 52.6742
lfemur -55.4964 -45.054 23.5307
ltibia 11.8727
lfoot -47.3885 46.7348
ltoes 43.0754
